<svg height="124" viewBox="0 0 357 124" width="357" xmlns="http://www.w3.org/2000/svg" xmlns:xlink="http://www.w3.org/1999/xlink"><clipPath id="a"><path d="m880 5564h1040v401h-1040z"/></clipPath><clipPath id="b"><path d="m0 0h357v124h-357z"/></clipPath><g clip-path="url(#b)"><g clip-path="url(#a)" transform="translate(-928 -5831)"><g fill="#090a0c" transform="translate(332.51 -818.48)"><path d="m1191.5 6990.253c12.19-7 26.077-14.883 40.731-23.234 15.322-8.552 31.7-17.629 48.315-26.735s33.35-18.065 49.274-26.637c8.278-4.221 16.3-8.3 24.152-12.273q11.656-5.778 22.92-11.33c7.523-3.694 14.757-7.273 21.807-10.793s13.93-7.01 20.736-10.5 13.367-6.939 19.738-10.393c6.624-3.477 13.2-6.992 19.582-10.5 7.479-4.415 14.64-8.809 21.4-13.188 6.854-4.365 13.71-8.847 20.091-13.337s12.321-8.96 17.809-13.393 10.541-8.842 15.131-13.221c4.715-4.42 9.358-8.909 13.584-13.327s8.041-8.767 11.439-13.032a177.156 177.156 0 0 0 16.461-24.458 137.207 137.207 0 0 0 9.932-21.665 72.42 72.42 0 0 0 3.967-17.482c1.14-10.366.566-18.126-1.809-22.323-4.752-8.4-11.242-9.1-17.863-4.94s-12.94 10.712-18.739 17.765-10.813 13.717-14.874 19.57a118.139 118.139 0 0 0 -9.16 15.056 43.978 43.978 0 0 0 -3.974 11.363c-.448 3.336-.86 6.882-1.8 11.154s-3.243 9.723-7.822 16.75-11.48 15.552-22.158 25.951a219.3 219.3 0 0 1 -20.37 17.155c-8.216 6.221-17.42 12.784-28.418 19.914q-8.249 5.349-18.161 11.169t-21.429 12.163c-7.337 4.2-15.3 8.594-23.967 13.306s-18.087 9.8-27.924 15.1c-9.579 5.361-19.923 11.054-30.805 17.138s-22.181 12.515-34.28 19.38-24.814 14.055-37.653 21.322-26.032 14.671-39.206 21.989-26.085 14.387-38.721 21.184-25.008 13.308-36.439 19.26q-8.987 4.678-17.35 8.957h8.25q19.856-10.4 41.853-22.239c10.172-5.452 20.318-10.972 30.692-16.659s20.919-11.509 31.7-17.476 21.2-11.795 31.657-17.619 20.629-11.484 30.3-16.933c10.066-5.517 19.695-10.81 28.8-15.768s17.706-9.585 25.838-13.981c16.908-8.633 32.145-16.557 46.221-23.845 14.054-7.264 26.663-13.953 37.861-20.268 11.484-6.27 22.005-12.342 31.177-18.074 9.157-5.717 17.264-11.116 24.426-16.2s13.649-9.969 19.566-14.693 11.132-9.134 15.688-13.233 8.464-7.9 11.759-11.408c6.588-7.005 11.847-12.732 16.244-17.168s7.478-7.373 9.428-8.637c3.9-2.527 1.72 4.446-11.613 23.986-3.28 4.86-8.751 11.044-16.45 18.437-3.85 3.7-8.038 7.571-12.736 11.669s-10.049 8.483-16.092 13.139-13.107 9.567-21.123 14.728-16.537 10.473-26.187 16.106-20.633 11.586-32.328 17.661c-11.634 6.221-24.586 12.779-38.338 19.754s-29.371 14.787-45.738 23.077c-8.317 4.4-17.115 9.023-25.894 13.714q-13.125 7.185-27.514 14.967-13.738 7.655-27.861 15.519c-9.4 5.24-18.857 10.522-28.286 15.776-18.349 10.353-35.685 20.169-52.729 29.721-9.442 5.426-18.99 10.809-28.116 15.95h5.8q3.534-2.067 7.284-4.263c9.393-5.469 20.331-11.742 32.314-18.625z"/><path d="m1561.013 6885.868q-9.754.806-19.087 1.655c-6.2.55-12.562 1.256-19.3 2.161s-13.611 1.9-20.8 3.06-14.81 2.555-22.7 4.107-16.413 3.426-25.337 5.528-18.54 4.536-28.785 7.294c-10.226 2.752-21.029 5.854-32.748 9.459s-24.266 7.743-37.613 12.546-27.441 10.384-42.2 16.531c-15.119 6.64-31.222 13.931-47.169 21.438-15.846 7.747-31.826 15.73-47.839 23.82-13.543 6.935-26.2 13.484-38.072 19.672h57.137q3.855-1.786 7.7-3.558c26.715-12.247 52.429-22.937 76.953-31.977 23.647-8.1 46.138-14.676 67.593-20.1 22.075-4.85 43.317-8.884 63.584-11.953 18.963-2.842 37.462-5.336 55.7-7.8l89.422-12.056v-43.547c-5.532.711-10.952 1.365-16.2 1.938-7.081.696-13.737 1.244-20.239 1.782z"/><path d="m1564.49 6514.2a21.609 21.609 0 0 0 -9.568 6.722 22.466 22.466 0 0 0 -5.153 9.941c-.162 3.955-.778 8.022-.647 12.356-.351 4.49-.326 9.224-.609 14.247-.3 5.269-.9 10.974-1.565 17.1-.923 6.506-2.426 13.984-4.385 22.569-1.518 5.21-3.4 11.1-5.917 17.995a189.422 189.422 0 0 1 -10.743 23.815c-2.4 4.513-5.076 9.2-8 13.956s-6.094 9.6-9.472 14.437c-3.272 4.757-6.817 9.539-10.575 14.324s-7.735 9.578-11.851 14.339q-6.97 7.451-14.455 14.822-7.511 7.374-15.654 14.692c-10.9 9.784-22.531 19.412-34.326 28.819-12.636 9.755-26.1 19.821-40.117 29.847-14.285 10.378-28.925 20.784-43.52 31.089q-23.91 16.782-48.679 33.982c-16.56 11.466-33.348 22.98-49.726 34.16-15.572 10.635-31.114 21.08-45.668 30.663s-28.306 18.376-40.54 25.869c-25.649 15.708-44.434 26.919-56.662 34.467-6.115 3.774-9.567 6.251-10.847 7.787s-.53 2.2 1.656 2.25a147.259 147.259 0 0 0 18.818-5.39c8.732-2.985 20.268-7.48 33.711-13.171 14.947-6.328 31.663-13.9 49.008-22.053s33.38-15.667 45.786-21.069 19.637-7.718 19.674-5.892-8.679 8.537-26.551 20.228q-13.155 8.645-33.171 20.652c-13.363 7.979-28.922 16.858-45.668 26.071s-34.7 18.5-52.334 27.137c-1.5.734-2.983 1.453-4.471 2.175h8.513c3.7-1.82 7.432-3.666 11.229-5.566 11.428-5.717 23.159-11.757 35.042-18.069s23.524-12.678 35.371-19.245c11.884-6.588 23.167-13.041 34.442-19.561s21.813-12.727 31.669-18.62 18.99-11.432 27.51-16.68c16.955-10.317 31.808-19.441 43.585-26.834s21-13.416 28.084-18.31c14.151-9.771 19.739-15.2 18.846-17.171s-6.552-1.194-15.589 1.674-20.292 7.221-31.962 12.059-22.24 9.262-29.873 12.116-11.377 3.494-10.4 1.334 7.383-7.561 17.907-15.422c9.451-7.061 20.115-14.851 31.859-23.286 11.724-8.412 24.022-17.165 36.073-25.778 13.879-9.68 27.019-18.913 39.238-27.818s23.582-17.575 34.7-26.323c5.639-4.56 11.186-9.143 16.57-13.718s10.827-9.273 16.192-14.083 10.535-9.677 15.5-14.594 9.74-9.888 14.313-14.918 8.817-9.976 12.8-14.884 7.695-9.774 11.186-14.631 6.786-9.661 9.929-14.4 6.137-9.424 9.017-14.027c5.763-9.206 10.918-17.082 16.085-23.236s10.73-10.11 17.035-11.331c5.666-1.1 11.957.761 18.032 5.829.777.648 1.538 1.352 2.284 2.1v-104.943a99.687 99.687 0 0 0 -18.02-2.686 34.534 34.534 0 0 0 -14.946 2.086z"/><path d="m1195.739 6983.289c10.829-6.071 21.512-12.089 32.4-18.184s21.131-11.881 31.317-17.567 19.936-11.111 29.109-16.167c18.356-10.119 34.757-18.988 48.34-26.4 14.016-7.185 25.6-13.2 34.673-18.214 18.26-9.65 30.949-16.35 38.486-20.523 7.749-4.165 10.639-6.015 9.259-5.672s-6.368 2.531-14.842 6.377c-8.22 3.866-20.054 9.584-35.552 17.329-7.75 3.872-16.322 8.222-26.05 13.195s-20.716 10.7-32.7 17.026c-11.669 6.41-24.644 13.448-38.692 21.04-13.608 7.57-28.454 15.723-43.668 24.072q-22.588 12.507-45.6 24.948c-14.677 7.973-28.927 15.649-42.544 22.881-3.664 1.946-7.245 3.844-10.772 5.706h14.11c7.431-4.153 14.875-8.341 21.961-12.424 10.273-5.794 20.714-11.678 30.765-17.423z"/><path d="m819 6989.805c-2.739-4.857-5.258-9.773-7.622-14.479-4.491-8.848-8.7-17.655-12.6-25.382a214.617 214.617 0 0 0 -11.188-19.481 87.144 87.144 0 0 0 -10.316-12.16 25.658 25.658 0 0 0 -9.629-4.156 17.789 17.789 0 0 0 -8.48 2.886 68.253 68.253 0 0 0 -13.607 17.084c-3.8 7.513-7.265 15.18-10.474 22.908-3.219 7.959-6.278 15.324-9.161 22.171s-5.8 13.017-8.773 18.5a73.581 73.581 0 0 1 -9.673 13.853c-.491.553-.993 1.067-1.49 1.6h43.677c.21-.652.421-1.3.63-1.968 2.566-6.716 5.08-14.067 7.937-21.219 2.839-7.109 6.2-13.469 10.231-18.371a13.086 13.086 0 0 1 6.877-4.493c2.523-.682 5.366-.077 8.46 1.418a96.49 96.49 0 0 1 10.366 9.653c3.914 5.19 8.061 10.742 12.67 17.035 2.3 3.146 4.879 6.55 7.622 10.077 2.009 2.583 4.123 5.22 6.336 7.868h13.447c-2.117-2.821-4.109-5.615-6.007-8.481-3.461-5.244-6.491-10.005-9.233-14.863z"/><path d="m845.2 6983.6a287.134 287.134 0 0 1 -10.4-31.055c-2.79-10.49-5.417-22.041-7.691-33.252-2.343-11.554-4.533-23.226-6.775-35.6-2.437-10.106-5.1-21-8.041-30.685a238.83 238.83 0 0 0 -10.614-24.1 103.679 103.679 0 0 0 -12.918-16.3 53.992 53.992 0 0 0 -30.9-14.955 129.141 129.141 0 0 0 -16.542-1.054c-5.177.792-10.4 1.678-15.265 2.807a114.1 114.1 0 0 0 -13.989 4.161 98.268 98.268 0 0 0 -12.6 5.629 137.6 137.6 0 0 0 -20.69 13.533c-5.943 4.775-11.218 9.59-15.96 14.225-4.463 4.877-8.445 9.489-12.278 13.757s-7.6 8.149-11.288 11.643a94.85 94.85 0 0 1 -11.153 9.264 68.154 68.154 0 0 1 -11.6 6.88 71.239 71.239 0 0 1 -12.032 4.538 115.659 115.659 0 0 1 -24.591 3.3 277.9 277.9 0 0 0 -29.628 3.157c-.911.18-1.83.375-2.747.567v28.994c3.74.767 7.368 1.606 11.069 2.37a134.874 134.874 0 0 0 27.419 2.784 140.248 140.248 0 0 0 28.93-2.942 97.16 97.16 0 0 0 14.012-3.951 80.424 80.424 0 0 0 12.862-6.166 67.739 67.739 0 0 0 11.794-8.666 91.6 91.6 0 0 0 10.562-11.512 155.041 155.041 0 0 0 9.694-14.544c3.191-5.325 6.734-10.944 10.579-16.729a118.183 118.183 0 0 1 13.738-17.1 120.081 120.081 0 0 1 19.178-15.625c3.923-2.037 8.027-3.942 12.211-5.754a106.946 106.946 0 0 1 13.7-3.225 144.915 144.915 0 0 1 14.769.459 73.23 73.23 0 0 1 14.786 5.749 51.712 51.712 0 0 1 13.764 10.91 78.764 78.764 0 0 1 12.464 18.328 155.255 155.255 0 0 1 10.294 26.1c3.072 10.282 5.906 21.228 8.729 33.61 2.953 13.309 6.346 27.248 10.228 41.127 1.94 6.939 4.213 14.012 6.845 21a199.241 199.241 0 0 0 9.045 20.415 168.318 168.318 0 0 0 10.923 17.456h8.262c-1.477-1.778-2.968-3.667-4.486-5.7a187.319 187.319 0 0 1 -13.669-23.848z"/><path d="m829.7 6987.052c-3.031-6.258-5.673-12.53-8.07-18.765s-4.588-12.373-6.661-18.462c-3.9-10.927-7.573-21.571-10.983-31.441a230.542 230.542 0 0 0 -10.377-25.752 80.187 80.187 0 0 0 -11.26-17.224 40.236 40.236 0 0 0 -12.06-9.93 35.823 35.823 0 0 0 -12.093-3.814 57.59 57.59 0 0 0 -10.995 1.98 51.586 51.586 0 0 0 -9.1 6.413 105.315 105.315 0 0 0 -14.848 17.79c-3.951 7.386-7.523 14.772-10.744 21.928s-6.3 14.038-9.467 20.39a113.441 113.441 0 0 1 -9.7 17.328 72.453 72.453 0 0 1 -10.943 12.839 75.311 75.311 0 0 1 -12.323 8.749 59.563 59.563 0 0 1 -13.419 5.8 117.591 117.591 0 0 1 -14.638 3.432 116.065 116.065 0 0 1 -15.528 1.642c-10.868.443-22.133.2-33.424-.421a275.968 275.968 0 0 1 -33.927-4.073c-3.955-.674-7.822-1.432-11.646-2.234v34.223q8.734 1.921 17.62 3.526c4.256.753 8.559 1.468 12.863 2.163h105.447a50.266 50.266 0 0 0 9.255-5.305 71.059 71.059 0 0 0 10.853-10.306 74.8 74.8 0 0 0 9.767-14.44c3-5.8 6.287-12.187 9.45-19.465 3.113-7.161 6.367-14.682 9.543-22.907 3.475-7.369 7.053-15.072 11-22.608 4.389-6.069 9.282-11.378 14.9-14.8a12.724 12.724 0 0 1 9.143-1.684c3.268.586 6.676 2.4 10.12 4.64a91.893 91.893 0 0 1 10.48 13.777 210.486 210.486 0 0 1 10.956 20.262c3.8 8.033 7.91 17.758 12.173 26.747 2.288 5.142 4.693 10.326 7.249 15.392s5.375 10.119 8.71 15.675c3.027 5.041 6.334 9.989 10.02 15.027h8.229c-1.795-2.513-3.527-5.043-5.149-7.589a181.671 181.671 0 0 1 -10.423-18.503z"/><path d="m1430.65 6970.192q-29.712 4.683-61.879 11.777c-22.135 5.572-45.381 12.466-69.838 21q-12.985 4.785-26.358 10.169h324.883v-65.684l-109.05 14.7c-18.947 2.559-38.147 5.146-57.758 8.038z"/><path d="m1568.905 6472.208a117.461 117.461 0 0 0 -19.961-1.167c-13.285.425-25.359 1.709-35.888 4.261-9.886 3.586-18.192 8.163-24.555 13.531-4.856 5.985-8.673 12.672-10 19.736s-.847 14.341.3 22.275 3.133 15.813 4.935 24.249c1.662 8.576 3.628 16.509 5.572 24.061a142.561 142.561 0 0 1 4.172 23.268 135.648 135.648 0 0 1 -1.573 25.841 190.232 190.232 0 0 1 -8.815 28.874 196.08 196.08 0 0 1 -10.3 17.368 233.311 233.311 0 0 1 -14.026 18.873 292.658 292.658 0 0 1 -20.766 22.334q-11.542 11.357-26.386 23.886c-10.49 8.855-22.3 18.264-35.19 27.972-13.164 10.1-27.6 20.762-43.415 32.256-15.528 11.284-32.55 23.516-50.4 36.186s-36.443 25.615-55.161 38.475c-17.716 12.181-36.772 24.857-55.716 36.939s-37.454 23.236-54.3 32.743-31.959 17.381-46.029 24.027-27.223 12.156-40.233 16.918a340.508 340.508 0 0 1 -33.8 9.961 203.464 203.464 0 0 1 -27.147 4.559c-8.215.763-14.86 1.013-20.129 1.126a115.991 115.991 0 0 0 -11.861.715c-5.95.792-8.87 2.856-8.928 6.091a25.453 25.453 0 0 0 5 5.573h110.095c11.406-3.161 22.778-6.691 33.827-10.333 12.717-4.353 23.751-8.137 30.666-10.114s7.976-1.178 1.27 3.318c-5.212 3.615-15.655 9.481-30.9 17.129h10.586c12.9-6.244 25.532-12.64 37.285-18.9 15.921-8.506 29.88-16.3 42.374-23.528s22.621-13.454 30.146-18.431c16.627-10.721 23.563-16.329 22.64-17.512s-9.136 1.756-22.491 7.593-29.971 13.385-47.393 21.1-33.824 14.5-48.979 20.3c-13.1 5.009-25 9.11-34.559 11.935a163.546 163.546 0 0 1 -21.515 5.175c-4.749.671-7.366.551-7.938-.232s.652-2.138 2.86-3.811c7.945-4.591 22.411-11.809 41.551-21.625 9.553-4.9 21.171-11.213 34.031-18.56s26.955-15.781 41.708-24.983 31.629-20.041 48.929-31.509 34.719-23.345 51.312-34.8c17.054-11.773 34.336-23.753 50.694-35.25s31.848-22.494 46.178-32.757c14.96-10.711 29.371-21.1 42.986-31.319s26.4-20.324 38.509-30.308c10.864-9.373 21.42-18.947 30.852-28.429a313.059 313.059 0 0 0 24.912-28.069 238.773 238.773 0 0 0 18.145-26.377 151.786 151.786 0 0 0 11.462-23.664 149.359 149.359 0 0 0 5.352-17.671 147.557 147.557 0 0 0 2.754-15.388 198.228 198.228 0 0 0 .449-23.965c-.308-6.874-1.018-13.131-1.782-18.862-.77-5.773-1.819-10.955-2.4-15.935s-.756-9.672.43-14.172 2.579-8.571 5.68-12.207a33.582 33.582 0 0 1 12.183-9.059c5.222-2.332 12.277-3.505 19.8-3.612 7.466-.1 15.978 1.339 25.178 3.671 2.06.522 4.149 1.12 6.257 1.778v-24.639c-2.75-.9-5.509-1.783-8.261-2.66a164.445 164.445 0 0 0 -20.283-4.249z"/><path d="m1557.409 6437.763c-9.792-.82-19.623-.885-29.4-.941a185.256 185.256 0 0 0 -28.758 2.073c-9.345 1.414-18.351 2.984-26.781 4.976a144.891 144.891 0 0 0 -23.408 7.7 116.909 116.909 0 0 0 -17.816 11.22 66.837 66.837 0 0 0 -12.418 12.539 56.749 56.749 0 0 0 -6.156 14.716 71.544 71.544 0 0 0 -2.029 15.685 153.586 153.586 0 0 0 1.374 16.774c.841 5.35 1.76 10.7 2.654 16.03.912 5.44 1.641 10.923 2.171 16.414s.828 11.016.839 16.534-.213 11.092-.551 16.552c-.117 5.2-.436 10.413-1.085 15.711s-1.429 10.53-2.481 15.8a145.665 145.665 0 0 1 -4.133 16.058c-3.507 10.942-6.931 21.094-11.166 31.164a189.029 189.029 0 0 1 -16.689 31.267 344.923 344.923 0 0 1 -27.254 35.336c-6.117 6.579-12.64 13.36-19.475 20.193-6.8 6.8-14.406 14-22.929 21.648q-13.432 12.056-29.668 25.547c-10.805 9-22.511 18.455-34.913 28.247q-20.2 15.538-42.575 31.831c-14.933 10.829-30.482 21.628-46.286 32.075s-31.743 20.38-47.352 29.385-30.751 16.915-45.086 23.5a313.917 313.917 0 0 1 -39.877 15.447 162.42 162.42 0 0 1 -33.989 6.773 107.492 107.492 0 0 1 -28.25-1.27 56.923 56.923 0 0 1 -20.061-10.4 48.952 48.952 0 0 1 -13.2-17.211c-3.114-6.591-5.383-13.869-7.427-20.239a60.553 60.553 0 0 0 -6.871-14.782 86.491 86.491 0 0 1 -6.192-19.936c-1.587-7.967-2.942-16.239-3.783-24.672s-1.632-17.007-2.618-23.7c-1.06-6.057-2.148-11.814-3.518-15.458s-3.2-3.74-5.443-.738a72.853 72.853 0 0 0 -6.428 10.124 99.324 99.324 0 0 0 -6.381 14.865 218.7 218.7 0 0 0 -6.383 22.43 295.12 295.12 0 0 0 -5.09 29.148c-1.345 10.5-2.258 21.367-2.783 32.374a268.386 268.386 0 0 0 1.8 31.77 155.981 155.981 0 0 0 5.862 27.841 107.113 107.113 0 0 0 8.928 21q1.194 2.076 2.34 3.98h11.93a115.021 115.021 0 0 1 -10.238-17.194 159.308 159.308 0 0 1 -7.778-25.782 179.793 179.793 0 0 1 -1.775-25.386 125.454 125.454 0 0 1 1.644-20.352 63.8 63.8 0 0 1 3.716-13.448 45.945 45.945 0 0 1 4.683-9.827c1.553-1.774 3.074-2.264 4.622 1.219a149.748 149.748 0 0 1 4.967 14.187c2.088 4.8 4.219 9.991 6.519 15.287a103.542 103.542 0 0 0 8.12 13.1c3.058 4.447 6.564 9.418 10.863 14.573a53.218 53.218 0 0 0 16.723 13.1 67.107 67.107 0 0 0 22.985 6.668 117.3 117.3 0 0 0 30.023-.821 214.875 214.875 0 0 0 37.619-9.253 381.471 381.471 0 0 0 44.068-18.2c15.8-7.61 32.53-16.655 49.842-26.879s35.048-21.445 52.672-33.167 34.761-23.641 50.957-35.285q24.267-17.459 45.8-33.786c14.389-10.885 27.7-21.181 39.808-30.79 12.089-9.6 23.049-18.573 33.126-27.037 9.064-7.812 17.387-15.206 24.745-22.187s13.831-13.587 19.64-19.862a389.087 389.087 0 0 0 25.649-33.59 192.275 192.275 0 0 0 14.441-29.868 127.518 127.518 0 0 0 6.871-27.57c1.132-9.009 2.184-18.575 2.844-28.558.33-4.991.384-9.911.245-14.822s-.481-9.812-.974-14.74-1.243-9.761-1.909-14.859-1.38-10.316-2.145-15.566-1.618-10.472-2.412-15.622-1.389-10.225-1.654-15.156a58.79 58.79 0 0 1 1-14.514 60.225 60.225 0 0 1 4.564-13.666 63.75 63.75 0 0 1 10.729-12.092 90.1 90.1 0 0 1 14.7-10.233 147.062 147.062 0 0 1 20.6-6.967 207.068 207.068 0 0 1 23.84-4.888 188.768 188.768 0 0 1 25.765-1.678 264.4 264.4 0 0 1 26.655 1.035 167.547 167.547 0 0 1 26.173 4.719q5.326 1.41 10.523 2.858v-11c-3.787-1-7.616-1.957-11.516-2.9a187.684 187.684 0 0 0 -28.535-4.581z"/><path d="m1544.72 6411.168c-11.391-.438-22.974-.791-34.521-.548-11.627.827-23.2 2.19-34.6 3.442a242.242 242.242 0 0 0 -32.861 5.858 231.52 231.52 0 0 0 -29.109 8.339 128.013 128.013 0 0 0 -23.906 11.718 98.553 98.553 0 0 0 -17.7 14.215 67.924 67.924 0 0 0 -11.285 15.493 74.972 74.972 0 0 0 -4.673 17.406 111.294 111.294 0 0 0 -.841 18.1c.345 6.293.907 12.459 1.544 18.46s1.128 12 1.386 18.015a174.724 174.724 0 0 1 -6.96 57.043c-1.9 6.553-3.873 12.815-6.141 19.146s-4.887 12.744-7.9 19.267-6.422 13.177-10.255 19.954-7.919 13.6-12.386 20.562-9.31 14.035-14.5 21.158-10.252 14.032-15.621 21.06-11.053 14.187-17.177 21.511-12.587 14.776-19.465 22.359-14.189 15.32-21.965 23.237-15.833 15.874-24.257 23.82-17.234 15.861-26.479 23.684c-9.562 8.093-19.387 15.984-29.366 23.592s-20.02 14.821-30.153 21.794c-10.528 6.823-21.031 13.262-31.276 18.947a278.2 278.2 0 0 1 -29.733 14.433 193.46 193.46 0 0 1 -28.214 9.17 81.161 81.161 0 0 1 -21.868 1 52.351 52.351 0 0 1 -18.515-5.46 36.026 36.026 0 0 1 -11.141-13.964 78.617 78.617 0 0 1 -6.116-20.524 212.391 212.391 0 0 1 1.934-28.872c1.415-10.836 1.441-19.557-.368-25.479a152.986 152.986 0 0 0 -7.368-14.32c-2.688-4.594-5.45-9.074-8.21-13.248a43.659 43.659 0 0 1 -6.6-17.516c-.788-9.742-1.751-19.212-2.6-29.593-.87-10.566-1.9-20.723-3-30.15a205.648 205.648 0 0 0 -4.707-25.074 99.932 99.932 0 0 0 -6.757-19c-6.374-12.68-15.264-25.123-31.327-22.862-9.847 1.387-18.4 7.861-24.437 15.763s-9.91 17.206-13.717 26.393c-3.736 9.014-7.3 18.123-11.213 27.061-2.853 6.515-5.689 13.3-12.834 16.038-5.258 2.013-11.157 1.7-16.631.379s-10.66-3.6-15.963-5.491a119.141 119.141 0 0 0 -34.744-6.776c-11.918-.526-22.742 2.334-34.308 3.437a231.065 231.065 0 0 0 -25.769 4.2c-8.8 1.859-17.229 4.338-25.776 6.943s-17.171 5.3-25.038 7.689c-7.53 2.695-15.1 5.126-22.327 7.553-7.027 2.763-13.96 5.276-20.257 7.544s-12.109 4.383-17.693 6.482-11 4.111-16.26 6.007c-4.885 1.762-9.66 3.476-14.377 4.988-4.536 2.012-9.095 3.674-13.465 5.526-2.5 1.173-4.944 2.386-7.366 3.61v83.7c8.906-1.944 17.8-3.879 26.458-6.062 9.572-2.42 18.337-4.916 26.3-7.3a83.4 83.4 0 0 0 11.478-4.482 82.425 82.425 0 0 0 11.283-6.5 136.377 136.377 0 0 0 11.421-8.751c3.9-3.282 7.839-6.955 12.231-10.974s9.473-8.354 15.005-12.823 11.632-8.971 18.457-13.567c7.5-3.973 15.415-7.97 24.181-11.769 4.479-1.58 9.19-3.049 14.021-4.28a97.677 97.677 0 0 1 14.966-2.678 151.125 151.125 0 0 1 16.169-.665 62.236 62.236 0 0 1 16.4 2.1 110.027 110.027 0 0 1 15.931 6 93.842 93.842 0 0 1 14.265 13.142 73.7 73.7 0 0 1 11.068 17.028 161.033 161.033 0 0 1 8.832 22.12 259.671 259.671 0 0 1 6.725 26.119c1.916 9.422 3.677 18.3 5.368 27.746s3.445 19.221 5.444 28.37c2.169 9.987 4.489 19.3 6.945 28.075a180.8 180.8 0 0 0 8.711 23.3 97.831 97.831 0 0 0 9.548 16.484c5.6 7.583 10.149 12.3 13.169 14.124h4.872a10.56 10.56 0 0 0 -.357-4.238c-2.32-7.216-5.355-17.06-8.814-30.72-1.262-7.357-2.358-15.667-3.009-24.86a290.172 290.172 0 0 1 -.476-29.845c.348-10.575 1.305-21.825 2.683-33.091s3.091-22.374 5.223-32.667c2.109-10.188 4.339-19.45 6.583-27.709s4.463-15.373 6.64-21.374a65.314 65.314 0 0 1 6.83-12.632 75.11 75.11 0 0 1 6.784-9.679c2.211-2.189 4.2-1.889 5.829 1.579s2.981 8.705 3.9 16.2c.936 7.2 1.585 15.568 2.128 24.726.753 8.91 1.489 18.56 2.2 28.278 1.176 8.756 2.558 17.276 4.272 24.581 2.308 5.723 5.059 9.68 7.611 14.286 2.519 4.544 4.3 10.745 5.517 18.642a74.012 74.012 0 0 0 7.128 22.328 50.571 50.571 0 0 0 13.333 16.619 63.772 63.772 0 0 0 21.375 8.4c8.229 1.653 17.788 1.689 28.187.325a183.252 183.252 0 0 0 33.776-8.1 327.693 327.693 0 0 0 39.149-16.165c13.922-6.74 28.632-14.756 43.579-23.666s30.141-18.64 45.207-28.845 29.8-20.688 43.686-30.976q19.937-14.907 37.508-29.081c11.731-9.451 22.757-18.64 32.856-27.367 9.632-8.324 18.379-16.2 26.7-23.983s15.955-15.241 23.17-22.5c12.758-13.574 23.247-25.942 32.595-37.868a282.422 282.422 0 0 0 20.444-33.074c5.522-10.622 10.3-21.416 14.871-32.707a175.393 175.393 0 0 0 5.78-16.642c1.6-5.478 2.912-10.9 4.02-16.33s1.9-10.8 2.471-16.152c.923-5.739 1.612-11.475 2.012-17.123a161.372 161.372 0 0 0 .287-16.913q-.289-8.424-1.34-16.794c-.68-5.418-1.509-10.845-2.287-16.474s-1.482-11.4-2-17.1a99.627 99.627 0 0 1 -.242-16.7 53.762 53.762 0 0 1 3.558-15.738 48.917 48.917 0 0 1 8.916-14.357 73.445 73.445 0 0 1 14.782-12.443 161.336 161.336 0 0 1 21.178-10.094 144 144 0 0 1 25.579-7.05c9.072-1.66 18.67-3.295 28.612-4.351a236.9 236.9 0 0 1 30.329-1.113c10.218.233 20.229.674 30.058 1.872a225.849 225.849 0 0 1 28.763 5.541c1.058.273 2.092.555 3.138.831v-22.6c-6.4-1.456-12.953-2.864-19.633-4.169a310.944 310.944 0 0 0 -33.105-2.894z"/></g></g></g></svg>